<?xml version="1.0" encoding="UTF-8"?>
<svg viewBox="0 0 425.28015 436.74884" xmlns="http://www.w3.org/2000/svg">
 <g transform="translate(-35.567 -41.927)">
  <path transform="matrix(.98116 0 0 1 8.682 0)" d="m460.85 260.3a216.72 218.37 0 1 1 -433.45 0 216.72 218.37 0 1 1 433.45 0z" fill="#cd87de"/>
  <path d="m129.91 163.17s15.627 22.929 37.915 18.382c2.3056 47.78 9.0951 254.52 101.83 296.28-120.83 6.4295-187.86-61.459-220.32-140.9-6.7888-124.06 80.761-174.47 80.569-173.76z" fill="#892ca0" fill-rule="evenodd"/>
  <path d="m223.43 109.03s13.898 23.762-2.1776 44.385c92.866 58.668 211.18 132.17 210.54 215.37 37.635-64.559 46.925-178.95-30.294-257.64-66.923-51.443-176.47-2.3057-178.07-2.1136z" fill="#892ca0" fill-rule="evenodd"/>
  <path d="m133.46 124.3s19.726-27.605 46.177-30.423c8.9664-24.338 21.029-45.538 21.029-45.538s-66.181 11.4-118.76 75.96c38.62-10.696 53.478-1.0888 51.557 0z" fill="#892ca0" fill-rule="evenodd"/>
  <path transform="matrix(1.1144 -.52986 .54199 1.1399 -96.642 71.382)" d="m219.1 140.44a42.768 33.719 0 1 1 -85.536 0 42.768 33.719 0 1 1 85.536 0z" fill="#cd87de"/>
 </g>
</svg>
