<?xml version="1.0" encoding="utf-8"?>
<!-- Generator: Adobe Illustrator 24.1.0, SVG Export Plug-In . SVG Version: 6.00 Build 0)  -->
<svg version="1.1" id="レイヤー_1" xmlns="http://www.w3.org/2000/svg" xmlns:xlink="http://www.w3.org/1999/xlink" x="0px"
	 y="0px" viewBox="0 0 560.5 595.3" style="enable-background:new 0 0 560.5 595.3;" xml:space="preserve">
<style type="text/css">
	.st0{fill:#101013;}
	.st1{fill:#852520;}
	.st2{fill:#BBA5A4;stroke:#BBA5A4;stroke-width:0.5322;stroke-linecap:round;stroke-linejoin:round;}
	.st3{fill:#D52F1F;}
	.st4{fill:none;stroke:#D0C711;stroke-width:1.5966;stroke-linecap:round;stroke-linejoin:round;}
	.st5{fill:#0AAC2F;}
	.st6{fill:#932513;}
	.st7{fill:#E3332B;}
	.st8{fill:none;stroke:#404247;stroke-width:2.1288;}
	.st9{fill:#90887E;stroke:#868197;stroke-width:0.5322;stroke-linecap:round;stroke-linejoin:round;}
	.st10{fill:#DC2A1E;}
	.st11{fill:#101010;}
	.st12{fill:#723F2B;}
	.st13{fill:#DC423A;}
	.st14{fill:url(#SVGID_1_);}
	.st15{fill:#0C1413;}
	.st16{fill:url(#SVGID_2_);}
	.st17{fill:#4A2B24;}
	.st18{fill:url(#SVGID_3_);}
	.st19{fill:url(#SVGID_4_);}
	.st20{fill:url(#SVGID_5_);}
	.st21{fill:url(#SVGID_6_);}
	.st22{fill:#DEE8F2;}
	.st23{fill:#474E56;}
	.st24{fill:#D22E1E;}
	.st25{fill:#0E1113;}
	.st26{fill:none;stroke:#D0C711;stroke-width:2.1288;stroke-linecap:round;stroke-linejoin:round;}
	.st27{fill:#97332B;}
	.st28{fill:#9D9990;}
	.st29{fill:#EDE5E8;}
	.st30{fill:url(#SVGID_7_);}
	.st31{fill:url(#SVGID_8_);}
	.st32{fill:#D92D1F;}
	.st33{fill:#231815;}
	.st34{fill:url(#SVGID_9_);}
	.st35{fill:#242122;}
	.st36{fill:url(#SVGID_10_);}
	.st37{fill:none;stroke:#231815;stroke-width:4.2577;}
	.st38{fill:#C1C1CF;}
	.st39{fill:#EAEEE7;}
	.st40{fill:#ACAECF;}
	.st41{fill:#C5C0BD;}
	.st42{fill:#DE2A1D;}
	.st43{fill:#1B0E0C;}
	.st44{fill:#C02A1D;}
	.st45{fill:#D92619;}
	.st46{fill:#D9353D;}
	.st47{fill:#0A7C2F;}
	.st48{fill:#17120E;}
	.st49{fill:#C8CBB9;stroke:#C8CBB9;stroke-width:0.5322;stroke-linecap:round;stroke-linejoin:round;}
</style>
<g>
	<path class="st0" d="M147.8,303.5c-21.2-9.3-48.2-16.4-71.8-12.5c-10.9,1.8-30.8,17.1-27.2,29.6c0.9,3.3,4.8,8.2,8.1,10.1
		c2,1.1,5.2,0.3,6.8,1.6c2.5,2,2.7,5.3,4.8,8c1.4,1.7,4.8,4.5,6.9,5.4c9.2,4,26.7,2.2,35.6-2.9c4.4-2.5,8.1-5.9,12.5-8.5
		c7.5-4.4,13.8-3.8,22.3-3.8"/>
	<path class="st1" d="M125.7,306c-8.4-0.7-58-18.4-55.9,4.7c0.7,7.2,12.8,7.8,18.9,9.3c14.6,3.6,29.4,4.1,44.2,6.6"/>
	<path class="st1" d="M132.9,337.8c-4.4-2.6-13.9,2.4-19.2,3c-18.2,2-41.4-1.3-57.7-10.6c2.6-7,23.3-3.5,29.3-3.5
		c22.4,0.1,45.8,2.8,67.4,9.1"/>
	<polygon class="st2" points="77.1,385.8 75.7,385.3 105.5,296.2 107,296.7 	"/>
	<path class="st1" d="M116.6,260.4c0,0-31.2,31.4-34.6,31.4c-3.4,0,6.8,3.5,9.5,2.1c2.7-1.4,27.8-23,27.8-23L116.6,260.4z"/>
	<path class="st0" d="M162.7,385.1c-21.2-9.3-48.2-16.4-71.8-12.5c-10.9,1.8-30.8,17.1-27.2,29.6c0.9,3.3,4.8,8.2,8.1,10.1
		c2,1.1,5.2,0.3,6.8,1.6c2.5,2,2.7,5.3,4.8,8c1.4,1.7,4.8,4.5,6.9,5.4c9.2,4,26.7,2.2,35.6-2.9c4.4-2.5,8.1-5.9,12.5-8.5
		c7.5-4.4,13.8-3.8,22.3-3.8"/>
	<path class="st1" d="M140.6,387.7c-8.4-0.7-58-18.4-55.9,4.7c0.7,7.2,12.8,7.8,18.9,9.3c14.6,3.6,29.4,4.1,44.2,6.6"/>
	<path class="st1" d="M147.8,419.4c-4.4-2.6-13.9,2.4-19.2,3c-18.2,2-41.4-1.3-57.7-10.6c2.6-7,23.3-3.5,29.3-3.5
		c22.4,0.1,45.8,2.8,67.4,9.1"/>
	<path class="st1" d="M131.5,342c0,0-31.2,31.4-34.6,31.4c-3.4,0,6.8,3.5,9.5,2.1c2.7-1.4,27.8-23,27.8-23L131.5,342z"/>
	<path class="st3" d="M225.2,245.7c0,0-8.8-84.4-11.5-91.4c-2.7-7-18.2-41.6-49.5-61.4c-26.5-16.7-42.1-19.5-61.1-7
		c-21.1,14-10.2,70.5-7.5,85.8c2.7,15.4,5.1,37.6,10.2,52.3C110.9,238.8,225.2,245.7,225.2,245.7z"/>
	<path class="st0" d="M155.7,210.6c7.8,0-34.3-9.7-35.3-17.5c-3.2-26.8-10-61.2-7.1-96.1c1.8-21.5,13.5-15.8,12.7-18.2
		c-0.7-2.1-8.8-1.4-22.6,5.8c-23.3,12.2-10.6,73.5-7.8,89.5c2.8,16,5.3,39.3,10.6,54.6C111.7,244.1,152.2,210.6,155.7,210.6z"/>
	<path class="st4" d="M126.7,228.2c0,0,14.9-16.2,19.5-17.6c4.6-1.4-26.5-6.1-30.5-22.4c-4-16.2-7.9-82.7-7.4-89.8
		c0.6-7.1,8.3-18.8,12.3-19.5"/>
	<path class="st5" d="M167.3,198.6l-15.3-5.5l14.7,0.5L167.3,198.6z M136.2,186.1l1,8.1l46.1,16.1l-0.8-6.2l-6.9-2.5l-1-7.9l6.6,0.2
		l-0.8-6.2L136.2,186.1z"/>
	<path class="st5" d="M140.3,156l2.7,21.4l-8.2-1.5l-2.7-21.5L140.3,156z M177.3,163.3l2.7,21.5l-32.3-6.5l-0.7-5.6l5.6,1.1
		l-0.9-7.1l8.2,1.6l0.9,7.2l10.4,2.1l-2-15.8L177.3,163.3z"/>
	<path class="st5" d="M175.5,149l0.7,5.7l-37-7.4l0.6,4.6l-8.2-1.7l-1.3-10.2L175.5,149z"/>
	<path class="st5" d="M158.7,136.5L140,127l18,3.6L158.7,136.5z M156.9,121.8l0.4,3.1l-29.7-6l1,7.5l30.8,15.8l8,1.6l-1.5-11.7
		l7.7,1.6l-0.7-5.8l-7.6-1.4l-0.4-3.1L156.9,121.8z"/>
	<path class="st5" d="M169.1,98.7l0.8,6.6l-24.4,3.9l25.5,5.1l0.7,5.7l-45.2-9l-0.7-5.7l28.6-3.9l-29.8-5.9l-0.7-5.7L169.1,98.7z"/>
	<path class="st6" d="M218.4,212.2c0,0-4.4-51.6-6.8-58.6c-2.5-7-5-20.9-22.4-38.4c-5-5,9.3,71.9,10.6,87.9L218.4,212.2z"/>
	<path class="st7" d="M221.8,211.5c0,0-4.7-51.6-7.5-58.6c-2.7-7-5.4-20.9-24.4-38.4c-5.5-5,10.2,71.9,11.5,87.9L221.8,211.5z"/>
	<path class="st8" d="M107.8,212.9c0,0-20.8-84.5-14.9-102.6c4.1-12.6,0.3-15.2,17.6-27.9"/>
	<polygon class="st9" points="200.5,229.4 199.1,230.1 168.4,161.5 169.8,160.8 	"/>
	<polygon class="st9" points="151,222.4 149.6,223.1 118.9,154.5 120.3,153.9 	"/>
	<path class="st10" d="M417.1,297.3c0,0-9.5-45.4,29.9-41.2c39.3,4.2,63.1,34.2,56.3,55.1C496.5,332.2,417.1,297.3,417.1,297.3z"/>
	<path class="st11" d="M417.1,296.6c0,0-8.7-49,28.9-41.2c36,7.4-16.2-5-15.5,17.1C431.9,312.3,417.1,296.6,417.1,296.6z"/>
	<path class="st12" d="M475,292c1-11.6-7.1-21-10.1-31.3c8-1.7,17.1,11.4,16.2,18.6C480.7,282.8,476.7,289.3,475,292"/>
	<path class="st13" d="M476.4,292.7c1-11.6-7.1-21-10.1-31.3c8-1.7,17.1,11.4,16.2,18.6C482.1,283.5,478.1,290,476.4,292.7"/>
	
		<linearGradient id="SVGID_1_" gradientUnits="userSpaceOnUse" x1="433.4206" y1="515.6472" x2="400.7197" y2="701.1037" gradientTransform="matrix(0.6373 0 0 0.6556 27.0465 -100.9249)">
		<stop  offset="5.649700e-02" style="stop-color:#D82C1C"/>
		<stop  offset="0.1442" style="stop-color:#D8361C"/>
		<stop  offset="0.2655" style="stop-color:#D84C1C"/>
		<stop  offset="0.3177" style="stop-color:#D8421C"/>
		<stop  offset="0.3898" style="stop-color:#D82C1C"/>
		<stop  offset="0.5109" style="stop-color:#CE2C1C"/>
		<stop  offset="0.7193" style="stop-color:#B22C1C"/>
		<stop  offset="0.9884" style="stop-color:#852C1C"/>
		<stop  offset="1" style="stop-color:#832C1C"/>
	</linearGradient>
	<path class="st14" d="M110.1,225.5c0,0,6.8-16.7,16.3-16.7s95,20.9,97,20.9c2,0,16.3,21.6,21.7,21.6c5.4,0,29.8,5.6,29.8,5.6
		s2-12.6,4.7-12.6c2.7,0,184.5,50.2,207.6,76.8c23.1,26.5-7.5,20.2-7.5,20.2l-25.1,8.4c0,0-164.2-11.9-166.2-12.6
		c-2-0.7-104.5-7.7-117.4-14c-12.9-6.3-48.8,2.8-76-18.1C68.1,284.1,110.1,225.5,110.1,225.5z"/>
	<path class="st15" d="M113.9,238l-1.4-26.5l8.8-2.1c0,0,4.7-3.5,29.2,2.8c24.4,6.3,57,12.6,53.6,18.1c-3.4,5.6-22.4,9.8-23.7,13.3
		c-1.4,3.5-2.4,15.2,20.4,20.2c9.5,2.1-80.1-10.5-88.9-9.1C103.1,256.2,113.9,238,113.9,238z"/>
	<path class="st15" d="M102.4,258.3c0,0,21.7,0,39.3,1.3c17.6,1.3,291.7,37.2,336.5,57.8c44.8,20.6-4.7,0.7-23.1-2.7
		c-18.3-3.3-310-55.8-350.7-49.8C63.7,270.9,102.4,258.3,102.4,258.3z"/>
	
		<linearGradient id="SVGID_2_" gradientUnits="userSpaceOnUse" x1="198.2513" y1="480.791" x2="192.7191" y2="512.1657" gradientTransform="matrix(0.6373 0 0 0.6556 27.0465 -100.9249)">
		<stop  offset="3.389800e-02" style="stop-color:#B7B8B8"/>
		<stop  offset="9.589920e-02" style="stop-color:#BABBBB"/>
		<stop  offset="0.1457" style="stop-color:#C4C5C5"/>
		<stop  offset="0.1912" style="stop-color:#D5D6D6"/>
		<stop  offset="0.234" style="stop-color:#EDEDED"/>
		<stop  offset="0.2599" style="stop-color:#FFFFFF"/>
		<stop  offset="0.285" style="stop-color:#E9E9E9"/>
		<stop  offset="0.3384" style="stop-color:#C1C1C1"/>
		<stop  offset="0.3908" style="stop-color:#A2A1A1"/>
		<stop  offset="0.4413" style="stop-color:#8B8A8A"/>
		<stop  offset="0.489" style="stop-color:#7E7D7D"/>
		<stop  offset="0.5311" style="stop-color:#797878"/>
	</linearGradient>
	<path class="st16" d="M135.7,228.5c-0.2-4.5-2.5-7.7-4.9-11.1c-0.6-0.8-1.8-2.2-1.8-3.2c0.1-2,2.6-1.6,4.2-1.4c3,0.3,6.1,1.3,9,2.1
		c4.6,1.3,9.4,2,14,3.2c2.4,0.6,20.9,4,19.8,7.5c-0.6,1.8-6.4-0.8-7.7-1.1c-3.7-1-7.5-1.5-11.3-1.9c-3.2-0.4-6.4-0.9-9.5-1.6
		c-1.5-0.3-7-1.9-8.4-0.9c-2.5,1.9,1.1,7.7-3.5,7.9"/>
	<path class="st17" d="M253.7,243.1l19.9,7c0,0,3.6-5.6,5.4-5.6c1.8,0,9.6,5.7,0.5,27c-1.8,4.2-14.9-0.5-22.2-0.9
		C250,270.1,253.7,243.1,253.7,243.1z"/>
	
		<linearGradient id="SVGID_3_" gradientUnits="userSpaceOnUse" x1="393.3291" y1="512.2635" x2="366.7843" y2="625.7979" gradientTransform="matrix(0.6373 0 0 0.6556 27.6837 -101.3619)">
		<stop  offset="3.389800e-02" style="stop-color:#B7B8B8"/>
		<stop  offset="9.589920e-02" style="stop-color:#BABBBB"/>
		<stop  offset="0.1457" style="stop-color:#C4C5C5"/>
		<stop  offset="0.1912" style="stop-color:#D5D6D6"/>
		<stop  offset="0.234" style="stop-color:#EDEDED"/>
		<stop  offset="0.2599" style="stop-color:#FFFFFF"/>
		<stop  offset="0.2617" style="stop-color:#FDFDFD"/>
		<stop  offset="0.3104" style="stop-color:#CCCCCC"/>
		<stop  offset="0.3586" style="stop-color:#A4A3A3"/>
		<stop  offset="0.4055" style="stop-color:#858383"/>
		<stop  offset="0.4507" style="stop-color:#6E6C6C"/>
		<stop  offset="0.4934" style="stop-color:#615F5F"/>
		<stop  offset="0.5311" style="stop-color:#5C5A5A"/>
	</linearGradient>
	<path class="st18" d="M260,268.7l19,2.8c0,0,4.5-26.1,1.8-26.1c-2.7,0-5,1.4-8.1,5.1c-3.2,3.7-7.7,2.8-5.4,1.4
		c2.3-1.4,8.6-9.3,12.2-9.3c3.6,0,12.9-2.7,1.4,30.7c-2.3,6.5-16.7-0.9-21.3-0.9C255,272.4,260,268.7,260,268.7z"/>
	<path class="st0" d="M277.7,271.5c3-4.6,1.5-6.5,0.1-10.6c-1.1-3.1-1.1-6.5-1.8-9.8c-2.8-0.7-5.6-2-8.6-1.9
		c0.8,3.3-1.4,2.8-2.9,4.7c-1.4,1.8-1.9,2.2-3,4.5c-2.1,4.7-0.4,6.9-0.5,11.1c4.9,0.2,9.3,0,13.8,1.9"/>
	
		<linearGradient id="SVGID_4_" gradientUnits="userSpaceOnUse" x1="351.9984" y1="473.0994" x2="324.2166" y2="630.6577" gradientTransform="matrix(0.6373 0 0 0.6556 27.0465 -100.9249)">
		<stop  offset="3.389800e-02" style="stop-color:#B7B8B8"/>
		<stop  offset="9.589920e-02" style="stop-color:#BABBBB"/>
		<stop  offset="0.1457" style="stop-color:#C4C5C5"/>
		<stop  offset="0.1912" style="stop-color:#D5D6D6"/>
		<stop  offset="0.234" style="stop-color:#EDEDED"/>
		<stop  offset="0.2599" style="stop-color:#FFFFFF"/>
		<stop  offset="0.2617" style="stop-color:#FDFDFD"/>
		<stop  offset="0.3104" style="stop-color:#CCCCCC"/>
		<stop  offset="0.3586" style="stop-color:#A4A3A3"/>
		<stop  offset="0.4055" style="stop-color:#858383"/>
		<stop  offset="0.4507" style="stop-color:#6E6C6C"/>
		<stop  offset="0.4934" style="stop-color:#615F5F"/>
		<stop  offset="0.5311" style="stop-color:#5C5A5A"/>
	</linearGradient>
	<path class="st19" d="M222.4,229.6c0,0,9.5,2.8,3.2,39.5l39.8,6.5c0,0-9.1-16.4-6.3-39.5C259.5,232.4,222.4,229.6,222.4,229.6z"/>
	
		<linearGradient id="SVGID_5_" gradientUnits="userSpaceOnUse" x1="405.7669" y1="490.4544" x2="377.9851" y2="648.0127" gradientTransform="matrix(0.5032 0 0 0.596 44.7561 -81.9099)">
		<stop  offset="0.1017" style="stop-color:#ACD6EC"/>
		<stop  offset="0.1601" style="stop-color:#AFD8ED"/>
		<stop  offset="0.2071" style="stop-color:#B9DDEF"/>
		<stop  offset="0.25" style="stop-color:#CAE5F3"/>
		<stop  offset="0.2903" style="stop-color:#E2F1F8"/>
		<stop  offset="0.3277" style="stop-color:#FFFFFF"/>
		<stop  offset="0.3426" style="stop-color:#DEEDF0"/>
		<stop  offset="0.3717" style="stop-color:#A4CDD4"/>
		<stop  offset="0.4009" style="stop-color:#72B2BD"/>
		<stop  offset="0.4294" style="stop-color:#499BA9"/>
		<stop  offset="0.457" style="stop-color:#298A9A"/>
		<stop  offset="0.4837" style="stop-color:#127D90"/>
		<stop  offset="0.5089" style="stop-color:#057689"/>
		<stop  offset="0.5311" style="stop-color:#007387"/>
	</linearGradient>
	<path class="st20" d="M226.1,229.2c0,0,7.5,2.5,2.5,35.9l31.4,5.9c0,0-7.2-14.9-5-35.9C255.3,231.7,226.1,229.2,226.1,229.2z"/>
	
		<linearGradient id="SVGID_6_" gradientUnits="userSpaceOnUse" x1="498.1308" y1="682.274" x2="484.439" y2="759.9241" gradientTransform="matrix(0.6373 0 0 0.6556 -118.5829 -165.5616)">
		<stop  offset="0" style="stop-color:#D72A22"/>
		<stop  offset="0.2599" style="stop-color:#D76D22"/>
		<stop  offset="0.3328" style="stop-color:#CC5322"/>
		<stop  offset="0.4161" style="stop-color:#C33C22"/>
		<stop  offset="0.4952" style="stop-color:#BD2F22"/>
		<stop  offset="0.565" style="stop-color:#BB2A22"/>
	</linearGradient>
	<path class="st21" d="M147.2,279.8c30.2,0,66.3,7.2,89,29.4c5,4.9,11.3,11.5,15.2,17.5c8.9,13.4-5.1,8.2-13.6,6.1
		c-13.7-3.4-27.6-7.8-41.6-9.6c-18.1-2.3-39.8-0.4-56.8-8.4c-8-3.7-9.7-13.7-5.8-21.8c3.4-7.2,8.8-6.8,14.3-11.1"/>
	<path class="st15" d="M106.4,271.5c0,0,54.2-3.9,90.9,4.8c23.1,5.5-33.9-0.7-33.2,16.4c0.5,12.5,24.4,16.5,24.4,16.5
		s-63.8-1.4-76.7-11.7c-12.9-10.3-5.4-24-5.4-24V271.5z"/>
	<path class="st15" d="M102.4,293.1c0,0,17,14.7,71.2,18.8c54.3,4.2,246.9,18.1,274.1,23.7c27.1,5.6-261.2-20.9-272-20.2
		c-10.9,0.7-71.2-12.6-75.3-15.4C96.3,297.3,102.4,293.1,102.4,293.1z"/>
	<path class="st22" d="M334.3,316.1c-0.3,0.4-0.6,0.9-0.8,1.3c-0.1,0.1-0.1,0.2-0.2,0.4c-0.1,0.1-0.1,0.3-0.2,0.4
		c-0.2,0.3-0.3,0.6-0.5,0.9c-0.2,0.3-0.4,0.7-0.6,1c-0.3,0.6-0.6,1.2-0.8,1.8c-0.3,0.6-0.5,1.1-0.7,1.5l-0.6,1.6l-0.6,2.4
		c-0.1,0.4-0.2,0.8-0.3,1.1c-0.1,0.4-0.2,0.7-0.4,1c-0.5,1.4-1.2,2.5-2,3.3c-0.8,0.8-1.5,1.2-2.2,1c-0.7-0.1-1-0.8-1.1-1.9
		c0-1.1,0.2-2.5,0.9-4.1c0.3-0.9,0.8-1.8,1.3-2.7c0.5-0.9,1.1-1.8,1.8-2.7c0.3-0.4,0.7-0.8,1.1-1.3c0.4-0.5,1.1-1.2,1.9-2.1
		c1-1.1,1.8-2,2.3-2.6c0.5-0.6,0.9-1.1,1.2-1.6c0.1,0,0.2,0,0.3,0c0.1,0,0.1,0,0.2,0c0.2,0,0.3-0.1,0.5-0.1c0.2-0.1,0.4-0.1,0.7-0.2
		C335,315.1,334.6,315.6,334.3,316.1z M331.5,304.9l0.8,0.2l-1.1,2.4c0.5-0.4,0.9-0.8,1.3-1.1c0.4-0.3,0.8-0.6,1.1-0.8
		c0.3-0.2,0.6-0.3,0.9-0.4c0.3-0.1,0.6-0.1,0.8,0c0.1,0,0.2,0,0.3,0.1c0.1,0,0.2,0,0.2,0.1c0.1,0.1,0.3,0.1,0.4,0.2
		c0.1,0.1,0.3,0.2,0.5,0.4c0,0,0.1,0.1,0.2,0.1c0.1,0.1,0.1,0.1,0.1,0.2c0.1,0.1,0.3,0.2,0.4,0.4c0.1,0.1,0.2,0.2,0.2,0.3
		c0.1,0.2,0.3,0.3,0.5,0.5c0.2,0.1,0.3,0.2,0.4,0.2c0.1,0,0.2,0,0.3-0.1c0.1-0.1,0.2-0.2,0.4-0.3l0.2-0.3c0,0,0.1-0.1,0.1-0.1
		c0,0,0.1-0.1,0.1-0.1c0,0,0.1,0,0.1,0c0,0,0.1,0,0.1,0c0.1,0,0.2,0.1,0.2,0.3c0,0.2,0,0.4-0.1,0.6c-0.1,0.2-0.2,0.5-0.4,0.9
		c-0.2,0.4-0.4,0.8-0.7,1.2c-0.2,0.3-0.4,0.6-0.6,0.9c-0.2,0.3-0.4,0.5-0.5,0.7c-0.6,0.7-1.1,1.3-1.7,1.6c-0.6,0.3-1.1,0.4-1.7,0.3
		c-0.2,0-0.3-0.1-0.5-0.2c-0.1-0.1-0.3-0.2-0.4-0.2c0,0-0.1-0.1-0.2-0.2c-0.1-0.1-0.3-0.2-0.5-0.4c0,0-0.1-0.1-0.2-0.1
		c-0.1,0-0.1-0.1-0.2-0.1c0,0-0.1,0-0.1-0.1c0,0,0-0.1-0.1-0.1c-0.4-0.3-0.7-0.6-1-0.7c-0.3-0.2-0.5-0.3-0.7-0.3
		c-0.4-0.1-0.7,0.1-1,0.4c-0.3,0.4-0.6,1-1,2l-0.2,0.4l-0.8-0.2L331.5,304.9z"/>
	<path class="st22" d="M342.5,330.4c0.3,0.1,0.6,0,0.8-0.2c0.2-0.2,0.5-0.6,0.8-1.3c0.2-0.3,0.3-0.6,0.5-0.7
		c0.1-0.2,0.3-0.2,0.4-0.2c0.2,0,0.3,0.2,0.3,0.5c0,0.3-0.1,0.7-0.3,1.1c-0.2,0.4-0.3,0.8-0.6,1.3c-0.2,0.5-0.5,0.9-0.8,1.4
		c-0.3,0.5-0.6,0.9-1,1.4c-0.3,0.4-0.6,0.9-0.9,1.2c-0.4,0.5-0.9,0.9-1.4,1.2c-0.5,0.3-0.9,0.5-1.4,0.6c-0.2,0-0.3,0-0.4,0.1
		c-0.1,0-0.3,0-0.4,0c-0.1,0-0.1,0-0.2,0c0,0-0.1,0-0.1,0c-0.2-0.1-0.5-0.2-0.8-0.5c-0.3-0.2-0.8-0.7-1.4-1.3
		c-0.3-0.3-0.5-0.5-0.7-0.7c-0.2-0.1-0.4-0.2-0.6-0.3c-0.1,0-0.1,0-0.2,0c-0.1,0-0.1,0-0.2,0.1c-0.1,0-0.2,0.1-0.4,0.2
		c-0.1,0.1-0.3,0.2-0.5,0.4c-0.1,0.1-0.3,0.2-0.4,0.3c-0.1,0.1-0.2,0.1-0.3,0.1c0,0-0.1,0-0.1,0c-0.1,0-0.2-0.2-0.2-0.4
		c0-0.2,0.1-0.5,0.2-0.8c0.6-1.7,1.5-3,2.7-4.1c1.1-1.1,2.2-1.5,3.1-1.3c0.2,0.1,0.4,0.1,0.5,0.1c0.2,0.1,0.4,0.2,0.7,0.3
		c0.3,0.1,0.6,0.3,0.9,0.5c0.5,0.3,0.8,0.5,1,0.6c0.2,0.1,0.4,0.2,0.5,0.3l0,0c0.1,0.1,0.2,0.1,0.3,0.1
		C342.3,330.4,342.4,330.4,342.5,330.4L342.5,330.4z M346.6,309.9l0.9-2.2l0.3,0.1c1.4,0.3,2.3,1.3,2.6,3c0.3,1.7,0.1,3.7-0.8,6
		c-0.7,1.9-1.6,3.4-2.7,4.8c-1.1,1.3-2.3,2.3-3.7,2.9l-1.7,0.7c-0.3,0.2-0.6,0.3-1,0.6c-0.4,0.2-0.9,0.5-1.4,0.8l-0.4,0.2
		c-0.1,0-0.2,0-0.3,0c-0.1,0-0.2,0-0.2,0c-0.2,0-0.4,0.1-0.7,0.2c-0.3,0.1-0.6,0.3-1.1,0.5c0.1-0.1,0.1-0.2,0.2-0.3
		c0.1-0.1,0.1-0.2,0.2-0.2c0.1-0.2,0.2-0.3,0.4-0.4c0.1-0.1,0.3-0.3,0.4-0.4c0.3-0.3,0.6-0.5,0.9-0.8c0.3-0.3,0.7-0.6,1.2-1
		c0.7-0.6,1.2-1,1.6-1.3c0.4-0.3,0.6-0.6,0.9-0.9c0.1,0,0.1-0.1,0.2-0.2c0.1-0.1,0.1-0.2,0.2-0.2c0,0,0-0.1,0.1-0.1
		c0,0,0-0.1,0.1-0.1c0.5-0.6,0.9-1.4,1.4-2.2c0.4-0.8,0.9-1.9,1.4-3.2c0.7-1.9,1.2-3.3,1.4-4.1C346.8,311,346.7,310.4,346.6,309.9
		L346.6,309.9z M346.5,307.5l-0.8,2.2c-0.2,0.1-0.5,0.2-0.6,0.3c-0.2,0.1-0.3,0.3-0.4,0.5c0,0,0,0.1,0,0.1c0,0,0,0.1,0,0.1
		c0,0.1,0,0.1,0,0.2c0,0.1,0,0.1,0.1,0.2c0.2,0.3,0.2,0.8,0.1,1.4c-0.1,0.6-0.2,1.2-0.5,1.9c-0.4,1.1-1,2-1.6,2.7
		c-0.7,0.7-1.3,1-1.9,0.8c-0.6-0.1-0.9-0.6-1-1.5c-0.1-0.9,0.1-1.9,0.5-3.1c0.5-1.3,1.2-2.4,2-3.4c0.8-1,1.7-1.6,2.6-1.9
		c0.1,0,0.1,0,0.2-0.1c0.1,0,0.1,0,0.1-0.1c0.1,0,0.1,0,0.2-0.1c0.1,0,0.1,0,0.1-0.1c0.1,0,0.3,0,0.4-0.1
		C346.1,307.6,346.3,307.6,346.5,307.5L346.5,307.5z"/>
	<path class="st23" d="M274.6,260.9c-0.6,0.1-1-0.1-1.6,0.1c-1.6,10.8,6.6,10.8,2.2-0.1"/>
	<path class="st24" d="M107,308c0,0,11,0,26.7,62.9c15.7,62.9,24.1,93.4,34.5,103.5c10.5,10.1,31.4,35.2,64.8,40.5
		c33.5,5.3,42.9-2.7,48.1-13.9c5.2-11.2,12-13.9-12.6-91.2c-24.6-77.4-16.7-54.4-16.2-58.1c0.5-3.7,4.2-13.3,5.2-18.1
		c1-4.8-63.8-16.5-78.4-20.8C164.5,308.6,109.6,307.5,107,308z"/>
	<path class="st25" d="M105.4,307.5c0,0,11,0,26.7,63.4c15.7,63.4,26.3,92.1,34.5,104.3c8,11.7,34.5,38.2,67.8,41.4
		c30.3,2.9,18.1-3.1-4.2-7.5c-24.2-4.8-40.7-28.1-44.2-39.3c-17.7-57.1-25-70.1-23.9-77.1c3.2-21.3,37.6-9.9,34.8-12.4
		c-4.2-3.8-33.5-16.8-34.8-21c-5.7-18,49.8-11.4,31.7-16.7c-31.2-9.2-17.6-12.7-17.2-15.6c0.5-3.8,48.4-5.9,48.4-5.9
		s-32.8-4.3-47.4-8.6C162.9,308,108,307,105.4,307.5z"/>
	<path class="st26" d="M218.8,500.1c-21.3-4.6-35.8-26.8-38.9-37.5c-15.6-54.4-22-66.8-21.1-73.5c2.8-20.3,33.1-9.4,30.7-11.8
		c-3.7-3.6-29.5-16-30.7-20c-5-17.1,43.8-10.9,27.9-15.9c-27.5-8.7-15.5-12.1-15.1-14.9c0.5-3.6,42.6-5.6,42.6-5.6
		c0.7,3.1,33.6,172.1,37.1,172.6C258.6,494.5,238.4,504.3,218.8,500.1z"/>
	<path class="st24" d="M266.3,451.9c8.5,17.4,0.4,39.2-17.9,48.7c-18.4,9.5-40.1,3-48.6-14.4c-8.5-17.4-0.4-39.2,17.9-48.7
		C236.1,428,257.9,434.5,266.3,451.9z"/>
	<polygon class="st24" points="240.5,438.5 230.8,440.3 209.9,322.7 219.7,320.9 	"/>
	<path class="st27" d="M270.8,506.5c3.4,7.1,9.3-4.6,12-10.2c4.9-10.5,9.3-5.7-9.9-69c-1.4-4.5-7.2-8.5-22.4-9.6
		C250.5,417.7,268.7,502.2,270.8,506.5z"/>
	<path class="st7" d="M272.3,507.5c3.4,7.1,9.3-4.6,12-10.2c4.9-10.5,9.3-5.7-9.9-69c-1.4-4.5-7.2-8.5-22.4-9.6
		C252,418.8,270.2,503.3,272.3,507.5z"/>
	<path class="st8" d="M113.2,311.3c0,0,20.3,29.9,30.2,87.7c0,0,16.1,57.8,18.2,62.6c2.1,4.8,14.7,32,57.2,49.2
		c17.2,7,25.5,5.3,29.1,4.8"/>
	<path class="st28" d="M117.4,324.6c0,0,5.3-12.3,49.5-0.5c44.2,11.8,84.1,25.1,84.1,27.3c0,2.1,1.1,6.4,1.1,6.4
		s-84.1-26.7-86.8-26.2c-2.7,0.5-32.5-11.8-44.7-1.1L117.4,324.6z"/>
	<path class="st29" d="M219.4,474.7c-0.2,0.5-0.4,1-0.6,1.5c-0.1,0.1-0.1,0.3-0.1,0.4c0,0.2-0.1,0.3-0.1,0.5
		c-0.1,0.4-0.2,0.7-0.3,1.1c-0.1,0.4-0.1,0.8-0.2,1.3c-0.1,0.7-0.2,1.5-0.2,2.2c0,0.7,0,1.4,0.1,1.9l0.5,2.1l1,3.1
		c0.2,0.5,0.3,1,0.4,1.4c0.1,0.5,0.2,0.9,0.3,1.3c0.3,1.8-0.1,3.1-1.2,4c-1.1,0.9-2.5,1.1-4.5,0.8c-1.9-0.4-3.6-1.3-5-2.8
		c-1.4-1.5-2.3-3.3-2.6-5.3c-0.2-1.1-0.1-2.3,0.2-3.4c0.3-1.1,0.8-2.2,1.4-3.2c0.3-0.5,0.8-1,1.3-1.5c0.5-0.6,1.4-1.3,2.5-2.4
		c1.4-1.3,2.4-2.2,3-2.9c0.6-0.7,1-1.3,1.2-1.8c0.2,0,0.4,0,0.6,0.1c0.2,0,0.4,0.1,0.6,0.1c0.4,0,0.7,0,1.2-0.1
		c0.4,0,0.9-0.1,1.4-0.2C220,473.5,219.6,474.2,219.4,474.7z M198.6,458.7l2.2,0.4l0,2.9c0.7-0.5,1.4-0.9,2-1.2
		c0.7-0.3,1.3-0.6,2-0.8c0.7-0.2,1.3-0.2,2-0.2c0.7,0,1.4,0.1,2.2,0.3c0.2,0,0.5,0.1,0.7,0.1c0.2,0,0.4,0.1,0.6,0.1
		c0.4,0.1,0.8,0.3,1.3,0.4c0.5,0.2,1.1,0.4,1.9,0.8c0.2,0.1,0.4,0.1,0.5,0.2c0.2,0.1,0.4,0.2,0.6,0.3c0.5,0.2,1,0.4,1.4,0.6
		c0.4,0.2,0.7,0.3,0.8,0.4c0.6,0.3,1.2,0.5,1.8,0.8c0.5,0.2,1,0.3,1.3,0.4c0.2,0,0.5,0.1,0.7,0c0.2,0,0.4-0.1,0.6-0.3l0.3-0.3
		c0.1,0,0.2,0,0.2-0.1c0.1,0,0.2-0.1,0.2-0.1c0.1,0,0.2,0,0.2,0c0.1,0,0.2,0,0.2,0c0.3,0.1,0.6,0.2,0.8,0.5c0.2,0.3,0.4,0.5,0.4,0.8
		c0,0.3,0,0.7-0.1,1.1c-0.1,0.5-0.2,0.9-0.4,1.4c-0.1,0.4-0.3,0.7-0.5,1.1c-0.2,0.3-0.4,0.6-0.6,0.9c-0.6,0.8-1.5,1.4-2.6,1.7
		c-1.1,0.3-2.4,0.3-4,0c-0.5-0.1-1-0.2-1.5-0.3c-0.5-0.1-1-0.3-1.4-0.5c-0.2-0.1-0.4-0.2-0.7-0.3c-0.3-0.1-0.9-0.3-1.7-0.6
		c-0.2-0.1-0.4-0.2-0.6-0.2c-0.2-0.1-0.4-0.2-0.5-0.2c-0.1,0-0.2,0-0.3-0.1c-0.1,0-0.2-0.1-0.3-0.1c-1.3-0.6-2.4-1-3.4-1.3
		c-0.9-0.3-1.7-0.5-2.2-0.6c-1-0.2-1.7-0.1-2.1,0.3c-0.4,0.4-0.5,1.2-0.3,2.4l0.1,0.5l-2.3-0.5L198.6,458.7z"/>
	<path class="st29" d="M258,496.5c0.9,0.2,1.5,0.2,1.9,0c0.3-0.2,0.5-0.8,0.6-1.5c0.1-0.4,0.2-0.7,0.4-0.9c0.2-0.2,0.5-0.2,0.9-0.1
		c0.5,0.1,0.9,0.3,1.2,0.7c0.3,0.4,0.5,0.9,0.6,1.5c0.1,0.5,0.1,1,0,1.6c-0.1,0.5-0.2,1.1-0.4,1.7c-0.2,0.6-0.5,1.1-0.8,1.7
		c-0.3,0.5-0.6,1-1,1.4c-0.5,0.6-1.2,1-2.1,1.3c-0.9,0.3-1.8,0.4-2.8,0.4c-0.4,0-0.7,0-1.1,0c-0.3,0-0.7-0.1-1.1-0.1
		c-0.2,0-0.3-0.1-0.5-0.1c-0.1,0-0.3-0.1-0.4-0.1c-0.8-0.2-1.7-0.5-2.8-0.9c-1.1-0.4-2.7-1-5-2c-1.2-0.5-2.1-0.9-2.8-1.2
		c-0.7-0.3-1.3-0.4-1.8-0.5c-0.2,0-0.3-0.1-0.5-0.1c-0.2,0-0.4,0-0.5,0.1c-0.2,0-0.5,0-0.7,0.1c-0.2,0.1-0.5,0.2-0.8,0.4
		c-0.2,0.1-0.4,0.2-0.6,0.3c-0.2,0.1-0.3,0.1-0.5,0.1c0,0-0.1,0-0.1,0c0,0-0.1,0-0.1,0c-0.4-0.1-0.8-0.3-1.1-0.6
		c-0.3-0.3-0.5-0.7-0.5-1.1c-0.3-2.1,0.4-3.8,2.1-5c1.7-1.2,3.8-1.5,6.5-1c0.7,0.1,1.1,0.2,1.3,0.3c0.2,0,0.2,0,0.2,0
		c0.6,0.2,1.3,0.4,2.1,0.6c0.8,0.2,1.8,0.5,3,0.9c1.6,0.6,2.8,1,3.5,1.2c0.7,0.2,1.3,0.4,1.8,0.5c0,0,0.1,0,0.1,0
		c0.4,0.1,0.7,0.2,1.1,0.3C257.5,496.5,257.7,496.6,258,496.5L258,496.5z M244.2,469.5l-0.4-2.8l0.8,0.2c4.1,0.8,7.5,2.5,10.4,4.9
		c2.9,2.4,4.5,5.1,5,8c0.3,2.3-0.2,4.3-1.5,5.8c-1.3,1.5-3.4,2.5-6.1,3l-3.7,0.5c-0.5,0.1-1.2,0.3-1.9,0.5c-0.8,0.2-1.6,0.4-2.6,0.7
		l-0.8,0.2c-0.2,0-0.5,0-0.7,0c-0.2,0-0.4-0.1-0.6-0.1c-0.5-0.1-1.1-0.1-1.7,0c-0.6,0.1-1.4,0.2-2.3,0.4c0.1-0.1,0.2-0.3,0.2-0.4
		c0.1-0.1,0.2-0.2,0.3-0.2c0.2-0.2,0.3-0.3,0.5-0.5c0.2-0.2,0.3-0.3,0.5-0.5c0.4-0.3,0.8-0.7,1.4-0.9c0.5-0.3,1.1-0.6,1.9-1
		c1.1-0.6,2-1.1,2.5-1.4c0.5-0.3,1-0.7,1.3-1c0.1-0.1,0.2-0.1,0.3-0.2c0.1-0.1,0.1-0.2,0.2-0.2c0,0,0.1-0.1,0.1-0.1
		c0,0,0-0.1,0.1-0.1c0.5-0.7,0.8-1.6,0.9-2.6c0.1-1,0-2.4-0.2-4c-0.4-2.4-0.8-4.2-1.3-5.3C246,471.1,245.2,470.3,244.2,469.5
		L244.2,469.5z M241.5,469c-0.6,0-1,0.1-1.3,0.2c-0.3,0.1-0.4,0.3-0.4,0.6c0.1,0.1,0.1,0.2,0.2,0.3c0,0,0.1,0.1,0.3,0.2
		c0.1,0.1,0.3,0.2,0.5,0.3c0.8,0.5,1.5,1.2,2.1,2c0.6,0.8,0.9,1.6,1,2.4c0.2,1.4-0.2,2.5-1.2,3.2c-1,0.7-2.3,0.9-4,0.6
		c-1.6-0.3-3.1-1.1-4.4-2.4c-1.3-1.3-2.1-2.6-2.3-4.1c-0.2-1.6,0.2-3,1.2-4.1c1-1.1,2.5-1.8,4.4-2c0.2,0,0.3,0,0.4,0
		c0.1,0,0.2,0,0.4,0c0.1,0,0.2,0,0.4-0.1c0.1,0,0.2,0,0.4-0.1c0.3,0,0.6,0,0.9,0c0.3,0,0.7,0,1.1,0L241.5,469z"/>
	
		<linearGradient id="SVGID_7_" gradientUnits="userSpaceOnUse" x1="172.4556" y1="629.9666" x2="206.4785" y2="635.9658" gradientTransform="matrix(0.6373 0 0 0.6556 27.0465 -100.9249)">
		<stop  offset="5.649700e-02" style="stop-color:#D82C1C"/>
		<stop  offset="0.1442" style="stop-color:#D8361C"/>
		<stop  offset="0.2655" style="stop-color:#D84C1C"/>
		<stop  offset="0.3177" style="stop-color:#D8421C"/>
		<stop  offset="0.3898" style="stop-color:#D82C1C"/>
		<stop  offset="0.5109" style="stop-color:#CE2C1C"/>
		<stop  offset="0.7193" style="stop-color:#B22C1C"/>
		<stop  offset="0.9884" style="stop-color:#852C1C"/>
		<stop  offset="1" style="stop-color:#832C1C"/>
	</linearGradient>
	<path class="st30" d="M143.8,293.1c0,0,9.9,0.1,12.9,2.1c2.9,2-2.7,0.6-2.7,3.4c0,2.8-4.8,30-4.8,30s-0.9,5.6,0.4,5.6
		c1.4,0-8.6,0.8-10.6-1.3c-2-2.1,0.7-0.7,1.4-4.3c0.7-3.6,5.7-26.5,5.7-30C146,295.1,143.8,293.1,143.8,293.1z"/>
	
		<linearGradient id="SVGID_8_" gradientUnits="userSpaceOnUse" x1="256.3995" y1="642.4429" x2="290.1011" y2="648.3854" gradientTransform="matrix(0.6373 0 0 0.6556 27.0465 -100.9249)">
		<stop  offset="5.649700e-02" style="stop-color:#D82C1C"/>
		<stop  offset="0.1442" style="stop-color:#D8361C"/>
		<stop  offset="0.2655" style="stop-color:#D84C1C"/>
		<stop  offset="0.3177" style="stop-color:#D8421C"/>
		<stop  offset="0.3898" style="stop-color:#D82C1C"/>
		<stop  offset="0.5109" style="stop-color:#CE2C1C"/>
		<stop  offset="0.7193" style="stop-color:#B22C1C"/>
		<stop  offset="0.9884" style="stop-color:#852C1C"/>
		<stop  offset="1" style="stop-color:#832C1C"/>
	</linearGradient>
	<path class="st31" d="M197.5,298c0,0,9.9,0.1,12.9,2.5c2.9,2.3-2.7,0.6-2.7,3.9c0,3.3-4.8,34.7-4.8,34.7s-0.9,6.5,0.4,6.5
		c1.4,0-8.6,1-10.6-1.5c-2-2.5,0.7-0.8,1.4-4.9c0.7-4.1,5.7-30.7,5.7-34.8C199.8,300.3,197.5,298,197.5,298z"/>
	<path class="st32" d="M100.3,382.5c-5.5-0.3-19,5.7-12.9,11.2c6.5,5.8,16.5-5.9,12.2-11.2"/>
	<path class="st32" d="M83.5,409.1c-2.8,0.3-5.4,1.2-8,2.8c2.9,3.6,12,5.9,10.3-2.7C85,409,84.3,409.2,83.5,409.1"/>
	<path class="st32" d="M105.1,368.5c-2.2,0.6-4,2.2-5.2,4.4c2,1,4.1,1.4,6.4,1.1c0.6-2.8,0.1-5.4-1.9-6.9"/>
	<polygon class="st2" points="170.9,415.9 169.4,416 159.6,267.6 161.1,267.5 	"/>
	<polygon class="st2" points="223.8,429.1 222.3,429.2 211.8,270.4 213.4,270.3 	"/>
	<polygon class="st9" points="228.8,351.4 228.4,352.9 156.7,336.8 157.1,335.2 	"/>
	<polygon class="st2" points="197.4,198.6 197.1,200.1 125.4,184 125.7,182.4 	"/>
	<path class="st33" d="M30.4,239.3c0,0,6-28.3,10.9-31.6c4.9-3.2,9.6-15.5,37.4-9.6c27.8,5.9,38.4,11.2,40.5,12.3
		c2.1,1.1,8.4,18.2,4.7,36.9c-3.7,18.7-12.1,50.3-13.7,54c-1.6,3.7-5.8,11.2-10,10.7c-4.2-0.5-39.9-4.3-42.6-5.3
		c-2.6-1.1-25.7-3.7-30.5-25.1C22.5,260.2,29.9,242,30.4,239.3z"/>
	
		<linearGradient id="SVGID_9_" gradientUnits="userSpaceOnUse" x1="92.0551" y1="560.668" x2="104.5187" y2="489.983" gradientTransform="matrix(0.6373 0 0 0.6556 27.0465 -100.9249)">
		<stop  offset="0.2599" style="stop-color:#999999"/>
		<stop  offset="0.3283" style="stop-color:#9C9C9C"/>
		<stop  offset="0.3833" style="stop-color:#A6A6A6"/>
		<stop  offset="0.4335" style="stop-color:#B7B7B7"/>
		<stop  offset="0.481" style="stop-color:#CFCFCF"/>
		<stop  offset="0.5261" style="stop-color:#EDEDED"/>
		<stop  offset="0.548" style="stop-color:#FFFFFF"/>
		<stop  offset="0.5624" style="stop-color:#F0F0F0"/>
		<stop  offset="0.6071" style="stop-color:#C8C8C8"/>
		<stop  offset="0.651" style="stop-color:#A9A8A9"/>
		<stop  offset="0.6932" style="stop-color:#929192"/>
		<stop  offset="0.7331" style="stop-color:#858485"/>
		<stop  offset="0.7684" style="stop-color:#807F80"/>
	</linearGradient>
	<path class="st34" d="M106.2,254.3c4.2-2.2,7.7,4.2,11.4-1.1c1.3-2,0.4-10.2,1-13.1c0.9-4.4,2-8.4,1.6-12.9
		c-5.7-1.1-5.9,8.5-8.7,11.6c-4.3,4.9-11.3-0.1-16.6-1.5c-7.8-2.1-14.4-0.7-19.5-7.5c-3.5-4.6-5.7-8.4-11.4-10.2
		c-1.6,4.5,0.8,9.3,0.6,13.9c-0.1,1.4,0.4,3.4-0.1,4.7c-0.3,0.7-3,1.7-3.1,2.3c-0.7,4.1,4.2,5,5.2,9c1,3.8-1.6,8,3.2,9.7
		c5.6,1.9,10.4-5.8,14.8-7.4c2.7-1,7.9-0.3,10.7-0.1c4.1,0.3,6.4,2.1,9.7,3.2C107,255.3,104.1,255.4,106.2,254.3"/>
	<path class="st35" d="M45.4,246.2c-4.4,20-10.9,35.4-14.6,34.6c-3.7-0.9-3.2-17.7,1.1-37.7c4.4-20,10.9-35.4,14.6-34.6
		C50.3,209.4,49.8,226.3,45.4,246.2z"/>
	
		<radialGradient id="SVGID_10_" cx="131.5723" cy="532.8188" r="16.0708" gradientTransform="matrix(0.6373 0 0 0.6556 -44.7606 -105.4466)" gradientUnits="userSpaceOnUse">
		<stop  offset="0.2147" style="stop-color:#BFC0C0"/>
		<stop  offset="0.2948" style="stop-color:#AAABAB"/>
		<stop  offset="0.4059" style="stop-color:#949494"/>
		<stop  offset="0.5114" style="stop-color:#878787"/>
		<stop  offset="0.6045" style="stop-color:#828282"/>
	</radialGradient>
	<path class="st36" d="M51.1,218.2c-6.1-1.7-11.4,8.6-13.8,14.6c-4.9,11.8-5.3,29.2,1.6,39c5.5-14.6,9.8-35.2,10.1-51.2"/>
	<path class="st37" d="M47,246.7c-4.3,19.9-11.3,35.2-15.6,34.2c-4.3-1-4.2-17.9,0.1-37.8c4.3-19.9,11.3-35.2,15.6-34.2
		C51.4,209.8,51.4,226.7,47,246.7z"/>
	<path class="st38" d="M34,237.8c1.4-0.3,3.3,0,4.6,0.2c0.2,3.7,0.5,9.2-3.8,9.9c-6.9,1.2-5.6-8.6-1.3-9"/>
	<path class="st38" d="M28.3,228.1c0,0,3.1-8.6,5.7-10.2c2.6-1.6,6.2-26.2,5.2-38.5c-1-12.3,0.5-23-4.7-34.2
		C29.3,134,22,186.9,22,192.3c0,5.3,0.5,27.8,0.5,32.6C22.5,229.7,28.3,228.1,28.3,228.1z"/>
	<path class="st39" d="M33.5,246.7c0,0,3.1-17.1,1.6-19.4c-1.6-2.4-10.9-4.1-13.5-2.9c-2.6,1.2-2.1,11.2-2.1,14.1
		c0,2.9-2.6,18.2,0,18.8c2.6,0.6,13,2.4,13,2.4S34,248.5,33.5,246.7z"/>
	<path class="st38" d="M23.1,252.7c0,0-3.1,26.7-2.6,40.1c0.5,13.4,0.5,50.3,0.5,50.3s3.1-13.4,4.2-21.4c1-8,7.3-45.5,3.1-52.9
		c-4.2-7.5,0-4.8,0-12.8C28.3,247.9,23.1,252.7,23.1,252.7z"/>
	<path class="st40" d="M29.3,154.3c-2.3,15.6-7.7,50-1.7,64.2c3.1-9.9,1.2-27.8,1.4-39c0.1-8.5,1-17,2.1-25.2
		c-0.8,1.4-1.8,2.7-2.5,4.3"/>
	<path class="st40" d="M22.5,263.1c0,12.8,0,25.5,0,38.3c0,7.7-1.2,18.5,0.5,25.4c5.3-18.8,0.1-40.5-0.5-59.4"/>
	<path class="st41" d="M28.4,246.4c4.7-2.9,3.5-10.2,3.3-15.3c-0.9-0.1-1.6,0-2.5,0.1c-1.3,4.4,0.7,10.5-5.4,11.2
		c0,3.2,3.1,3.3,6,2.7"/>
	<path class="st42" d="M434.1,297.3c0,0,6.8,4.9,21-9.1c14.2-14,41.4-36.3,57.7-32.1c16.3,4.2,38,49.5-6.1,90
		c-44.1,40.5-19.6-8.4-18.3-21.6C489.1,317.6,434.1,297.3,434.1,297.3z"/>
	<path class="st43" d="M489.1,320.4l25.8-64.2c21,9.8,31.9,50.9-1.4,83c-33.2,32.1-14.9-10.5-17-13.3
		C494.5,323.2,498.6,323.2,489.1,320.4z"/>
	<path class="st44" d="M489.4,321.4l25.8-64.9c21,9.9,31.9,51.5-1.4,84c-33.2,32.5-14.9-10.6-17-13.4
		C494.8,324.2,498.9,324.2,489.4,321.4z"/>
	<path class="st45" d="M419.2,317.6c0,0,29.8-8.4,65.8,7c36,15.4,29.2,15.4,31.2,18.1c2,2.8,23.1,57.9-16.3,46.8
		C460.6,378.3,447,375.5,419.2,317.6z"/>
	<path class="st44" d="M487,324.5c34.1,15.4,27.6,15.4,29.6,18.1c1.9,2.8,21.8,57.9-15.4,46.8L487,324.5z"/>
	<path class="st46" d="M489.1,325.2c34.1,15.4,27.6,15.4,29.6,18.1c1.9,2.8,21.8,57.9-15.4,46.8L489.1,325.2z"/>
	<path class="st25" d="M419.2,317.6c0,0,0.7-7,17.6-1.4c0,0,9.8,23,10.2,26.5c1.4,13.3,48.8,46.1,48.8,46.1
		C456.6,377.1,447,375.5,419.2,317.6z"/>
	<path class="st47" d="M502.9,295.6l2.8-1.3l-1.6,1.9L502.9,295.6z M509,293.2l-2-1l-8.5,4l1.5,0.7l1.3-0.6l1.9,0.9l-0.7,0.9
		l1.5,0.7L509,293.2z"/>
	<path class="st47" d="M515.5,297.8l-5.2-2.5l1.2-0.9l5.3,2.6L515.5,297.8z M510,301.8l-5.3-2.6l4.8-3.4l1.3,0.6l-0.8,0.6l1.7,0.9
		l-1.2,0.9l-1.8-0.9l-1.5,1.1l3.9,1.9L510,301.8z"/>
	<path class="st47" d="M513.5,303.5l-1.4-0.7l5.5-4l-1.1-0.5l1.2-0.9l2.5,1.2L513.5,303.5z"/>
	<path class="st47" d="M518.1,303l4.1-1.2l-2.7,1.9L518.1,303z M521.7,304.7l-0.7-0.4l4.4-3.2l-1.8-0.9l-6.9,2l-1.2,0.9l2.9,1.4
		l-1.1,0.8l1.4,0.7l1.1-0.8l0.8,0.4L521.7,304.7z"/>
	<path class="st47" d="M525.8,309.5l-1.6-0.8l1.7-3.8l-3.9,2.8l-1.4-0.7l6.8-4.8l1.4,0.7l-2.1,4.4l4.5-3.2l1.4,0.7L525.8,309.5z"/>
	<path class="st48" d="M432.7,295.3c0,0,5.6,4.3,16-7.1c10.4-11.4,43.8-41.9,65.3-32c21.5,10-22.2-5.7-41,19.9
		c-6.5,8.9,7.9,18.8,2.1,18.5c-41-2.1,27.1,28.4,27.1,35.5C502.2,333.7,502.2,325.2,432.7,295.3z"/>
	<polygon class="st49" points="482.4,351.1 483.7,351.5 501.2,283.3 499.8,283 	"/>
</g>
</svg>
