<?xml version="1.0" encoding="UTF-8"?>
<svg width="360.74" height="196.72" viewBox="0 0 360.74 196.716" xmlns="http://www.w3.org/2000/svg">
 <path d="m69.634,102.98c5.292-3.168 9.756-5.616 13.536-7.488 3.672-1.944 6.66-3.132 8.82-3.852 4.464.684 8.244,1.188 11.34,1.8 3.132.54 5.436,1.044 7.2,1.512-2.952.72-6.048,1.728-9.288,3.024-3.276,1.295-6.228,2.088-10.224,4.716-4.176,2.556-8.784,6.012-14.22,10.512-2.592-2.304-4.428-4.464-5.652-6.084-1.225-1.656-1.729-3.168-1.512-4.14z" fill="#c0c0c0" fill-rule="evenodd"/>
 <path d="m240.922,87.932c-1.008,2.016-1.584,5.58-1.729,10.836-.288,5.256.072,14.688.937,20.376 .863,5.508 2.447,9.936 4.607,12.995 2.053,2.952 4.572,4.104 7.956,4.969 3.313.863 8.172.468 11.952.216 3.672-.396 7.272-1.188 10.26-1.944 2.88-.72 4.645-.972 7.38-2.304 2.772-1.512 6.408-3.636 8.965-5.977 2.447-2.231 4.283-4.535 5.651-7.739 1.225-3.456 1.548-8.064 1.944-12.42 .288-4.356.324-9.576.108-13.716-.253-4.248.18-7.956-1.477-11.52-1.764-3.708-5.688-7.488-8.855-10.224-3.313-2.844-6.912-4.968-10.261-6.228-3.384-1.296-6.443-1.512-9.576-1.044-.432,3.672-1.439,6.444-2.88,8.316-1.439,1.8-2.699,1.368-5.867,2.736-3.313,1.404-7.956,2.952-13.933,5.184-1.944,2.34-3.275,3.96-4.14,5.292-.862,1.26-1.258,1.944-1.042,2.196z" fill="#404040" fill-rule="evenodd"/>
 <path d="m195.058,132.212c1.584-3.312 4.392-6.516 8.712-9.899s12.204-7.416 16.848-10.152c4.465-2.772 4.752-3.384 10.152-6.12 5.4-2.844 12.672-6.228 22.104-10.44l1.296-.792c.18-2.304.72-3.996 1.764-4.932 1.008-.936 2.592-1.116 4.176-.828 1.44.108 2.736.072 4.86,1.836 2.196,1.764 6.444,5.616 7.884,8.784 1.26,3.061.468,6.984.145,9.54-.324,2.448-.505,3.78-2.089,5.112-1.8,1.151-5.184,3.096-7.775,2.34s-5.004-3.096-7.38-6.876c-9.324,3.996-16.452,7.236-21.924,9.72-5.4,2.376-5.005,1.44-10.332,5.112-5.473,3.708-12.673,9.18-21.996,16.848-2.16-2.016-3.708-3.563-4.788-5.184-1.117-1.549-1.621-2.953-1.657-4.069z" fill="#c0c0c0" fill-rule="evenodd"/>
 <path d="m226.594,89.588c2.844.252 5.544,1.008 8.244,2.412 2.628,1.368 5.22,3.924 7.632,5.724 2.268,1.728 4.212,3.996 6.408,4.572 2.124.433 3.672.324 6.588-1.691 2.771-2.16 4.968-6.121 10.476-10.621 5.508-4.644 16.2-12.06 22.356-16.128 6.084-4.032 7.956-5.112 13.968-7.956 5.976-2.952 13.068-6.12 21.672-9.648 2.592-3.816 5.472-7.452 8.784-11.052 3.312-3.708 7.236-8.388 10.8-10.44 3.42-2.052 7.056-2.016 9.648-1.692 2.447.216 4.067,1.476 5.147,2.952 .973,1.296 1.26,1.98.864,5.364-.54,3.42-2.052,9.792-3.708,14.796-1.692,4.86-4.068,10.8-6.012,14.508-2.017,3.636-3.349,5.364-5.544,7.272-2.269,1.728-4.464,2.412-7.561,3.42-3.168.9-8.388,2.124-11.088,2.304-2.808.144-4.428,0-5.256-1.26-.792-1.512 0-4.428.576-6.948 .468-2.52 1.188-4.932 2.304-7.632-8.712,4.536-16.344,8.784-23.292,13.032-7.02,4.176-12.816,8.064-18.072,11.952-5.184,3.78-8.531,7.092-13.104,11.052-4.788,3.96-11.16,9.576-14.796,12.42-3.744,2.772-5.185,3.601-6.948,4.141-1.764.359-1.908.432-3.492-1.584-1.62-2.16-4.067-7.704-6.228-10.656-2.305-2.88-3.924-4.788-7.345-6.696-3.527-1.979-7.775-3.564-13.283-4.896 1.728-1.692 3.456-3.06 5.184-4.248 1.694-1.153 3.385-2.125 5.078-2.773zm101.16-20.124c-.324,1.728-.937,3.924-.469,5.04 .324.972.828,1.224 2.484,1.152 1.548,0 5.04-.54 7.164-1.62 2.052-1.224 3.492-2.736 5.437-5.364 1.907-2.736 4.212-7.524 5.939-10.764 1.729-3.42 3.276-6.3 4.104-8.784 .756-2.484.504-4.176.359-5.652-.252-1.584-1.224-2.484-1.8-3.24-.72-.72-1.44-.864-2.304-.864-.9-.072-1.368-.324-2.772.756-1.512,1.116-3.815,3.096-5.796,5.544-2.088,2.376-4.248,5.148-6.048,8.316-1.872,3.096-3.492,7.308-4.572,10.008-1.115,2.52-1.367,3.744-1.726,5.472z" fill="#f00" fill-rule="evenodd" stroke="#000" stroke-miterlimit="10" stroke-width=".036"/>
 <path d="m146.782,173.685c-1.116-4.213-1.8-9.36-1.476-14.904 .288-5.616 1.728-13.32 3.348-18.108 1.512-4.716 3.24-7.56 5.76-10.188 2.52-2.772 5.472-4.5 8.856-6.156 3.276-1.8 7.452-3.42 10.872-3.888 3.24-.54 5.904-.612 9.108,1.188 3.204,1.908 7.02,5.832 10.332,9.685 3.168,3.672 6.804,8.424 9.107,12.312 2.232,3.816 3.528,6.552 4.284,10.729 .72,4.104.18,9.684-.108,13.823-.432,4.032.324,6.553-2.016,10.477-2.448,3.996-7.812,10.044-12.204,13.14-4.392,2.916-9.756,4.176-14.148,4.608-4.536.252-8.028-.433-12.564-2.592-4.572-2.377-11.484-6.984-14.616-10.477-3.203-3.386-3.564-5.582-4.535-9.649z" fill="#404040" fill-rule="evenodd"/>
 <path d="m175.006,169.977c-.36,2.376-.612,2.411-1.728,3.455-1.224,1.009-3.708,2.484-5.22,2.629-1.584.035-2.988-.864-4.068-2.305-1.152-1.584-1.98-4.14-2.628-6.695-.828-2.664-1.584-5.797-1.44-8.425 .216-2.628 1.404-5.472 2.592-6.983 1.08-1.656 2.196-2.196 3.78-2.305 1.512-.144 3.636.108 5.256,1.729 1.404,1.692 3.168,4.5 3.744,7.848 .576,3.239-.036,8.495-.288,11.052z" fill="#c0c0c0" fill-rule="evenodd"/>
 <path d="m22.149,144.92c-1.116-4.212-1.8-9.359-1.476-14.904 .288-5.615 1.728-13.319 3.348-18.107 1.512-4.716 3.24-7.561 5.76-10.188 2.52-2.771 5.472-4.5 8.856-6.156 3.276-1.8 7.452-3.42 10.872-3.888 3.24-.54 5.904-.612 9.108,1.188 3.204,1.908 7.02,5.832 10.332,9.684 3.168,3.672 6.804,8.424 9.108,12.313 2.196,3.815 3.636,6.552 4.32,10.728 .648,4.104.144,9.685-.144,13.824-.432,4.032.324,6.552-2.016,10.476-2.448,3.996-7.812,10.044-12.204,13.141-4.464,2.916-9.684,4.176-14.112,4.607-4.536.252-8.028-.432-12.564-2.592-4.572-2.376-11.448-6.983-14.652-10.476-3.204-3.385-3.563-5.582-4.536-9.65z" fill="#404040" fill-rule="evenodd"/>
 <path d="m50.41,141.212c-.324,2.34-.72,2.484-1.764,3.492-1.224,1.08-3.708,2.412-5.22,2.592-1.584.036-2.988-.864-4.068-2.304-1.152-1.584-1.98-4.14-2.628-6.696-.828-2.664-1.584-5.796-1.44-8.424 .252-2.628 1.404-5.472 2.628-6.984 1.08-1.655 2.196-2.195 3.78-2.304 1.548-.144 3.564.108 5.22,1.729 1.512,1.691 3.096,4.5 3.78,7.848 .575,3.239-.036,8.495-.288,11.051z" fill="#c0c0c0" fill-rule="evenodd"/>
 <path d="m32.662,34.004c-5.544,2.988-8.784,5.94-10.152,8.712-1.296,2.772.684,6.084 2.34,7.848 1.584,1.728 3.996,2.412 7.236,2.34 3.276,6.228 5.94,11.844 8.136,17.136 2.196,5.256 3.744,10.368 4.644,14.22 .756,3.708.756,6.372 0,8.136 2.988-1.224 5.904-1.656 9.036-1.152 3.024.432 6.12,1.692 9.288,3.78 4.788-1.296 9.396-2.268 14.22-2.916 4.716-.684 8.532-1.296 14.22-.864 5.544.396 12.636,1.836 19.476,3.492 6.768,1.512 14.616,3.168 21.204,6.372 6.552,3.275 12.6,9.071 17.712,13.067 4.968,3.853 9.036,7.2 12.204,10.188 3.384-1.98 6.732-3.384 10.188-4.068 3.42-.828 7.596-1.116 10.44-.288 2.808.864 4.896,2.7 6.408,5.508 2.483-4.392 5.868-8.855 10.439-13.932 4.536-5.184 10.98-11.808 16.561-15.984 5.436-4.176 10.26-5.688 15.983-8.424 5.725-2.772 12.276-6.264 17.713-8.136 5.184-1.98 10.619-1.152 13.68-3.492 2.88-2.412 3.312-7.056 4.355-10.728 .973-3.888 1.549-7.668 2.017-11.628 .432-3.96 1.224-8.028.864-11.628-.324-3.708-1.332-6.948-2.881-10.152 2.629-1.728 4.32-3.816 5.509-6.408 1.115-2.736 2.195-6.624 1.151-9.288-1.26-2.628-.863-4.572-8.136-6.408-7.344-1.944-20.448-3.456-35.424-4.932-15.156-1.584-36.828-3.816-54.324-4.068-17.604-.288-36.9,1.836-49.968,2.628-13.068.756-20.844,1.152-27.612,2.016-6.696.684-8.316,1.044-12.78,2.628-4.644,1.584-8.604,3.816-14.508,6.696-5.904,2.844-14.076,6.408-20.628,9.864-6.587,3.385-12.743,6.445-18.611,9.865z" fill="#f00" fill-rule="evenodd"/>
 <path d="m28.233,103.196c3.096-2.412 6.336-4.5 10.008-6.264 3.672-1.872 8.136-3.816 11.736-4.32 3.492-.504 5.544-1.08 9.216,1.584 3.708,2.628 8.496,9.828 12.132,14.112 3.384,4.104 6.408,6.443 8.244,10.764 1.62,4.284 2.196,10.008 2.16,14.688-.036,4.572-.468,8.929-1.98,12.925-1.62,3.96-4.32,8.136-7.416,11.159-3.204,2.988-8.1,5.328-11.376,6.876-3.348,1.404-4.392,2.376-8.424,1.944-4.068-.432-11.124-1.476-15.876-4.68-4.968-3.492-10.476-8.82-12.924-15.3-2.376-6.517-2.052-16.164-1.368-23.112 .576-6.948 2.16-12.924 4.896-18.216-1.476.252-2.844,2.159-4.104,5.867-1.404,3.673-2.952,10.692-3.528,16.057-.612,5.184-1.476,10.008.18,15.3 1.584,5.328 4.608,11.7 9.216,16.056 4.572,4.104 12.024,7.416 17.64,8.82 5.436,1.188 10.512.648 15.084-.792 4.5-1.476 8.388-4.14 11.952-7.416 3.456-3.312 7.38-6.3 9-12.168 1.476-6.048 2.124-16.164.396-23.112-1.836-7.02-7.236-13.14-10.764-18.216-3.564-5.256-6.768-9.54-10.188-12.168-3.528-2.52-6.48-3.384-10.404-3.132-4.068.144-9.936,2.376-13.32,3.924-3.384,1.404-5.544,3.636-7.056,4.896-1.62,1.225-2.34,1.692-2.736,2.377-.539.647-.719,1.115-.396,1.547z" fill-rule="evenodd" stroke="#000" stroke-miterlimit="10" stroke-width=".036"/>
 <path d="m28.233,103.196c1.188.504 11.844.036 17.244,1.368 5.148,1.296 10.476,3.132 13.896,6.479 3.24,3.313 4.896,7.813 6.084,13.104 1.188,5.147 1.512,11.628.972,17.64-.684,5.904-2.808,13.356-4.284,17.64-1.512,4.212-4.032,6.192-4.5,7.452-.396,1.08.828.433 1.728-.396 .756-.756 1.692-1.692 2.952-4.32 1.152-2.771 3.42-7.271 4.32-11.952 .972-4.788 1.368-10.8 1.188-16.235-.468-5.616-1.404-12.133-2.952-16.488-1.512-4.356-1.872-6.336-6.084-9-4.464-2.736-14.832-6.192-19.98-7.057-5.219-.935-11.663,1.225-10.584,1.765z" fill-rule="evenodd" stroke="#000" stroke-miterlimit="10" stroke-width=".036"/>
 <path d="m48.034,149.42c-4.068-.107-7.2-1.62-9.396-4.68-2.304-3.061-4.032-9.468-3.924-13.536 .072-4.212 1.8-10.008 4.5-11.16 2.664-1.151 9.108.756 11.16,4.32 1.8,3.528 1.152,12.672.396,16.452-.792,3.708-2.232,5.399-4.716,5.472 1.692-1.26 2.916-3.528 3.528-6.66 .54-3.275 1.26-9.288.216-12.348-1.224-3.204-4.464-5.725-6.66-6.048-2.34-.252-5.472,1.476-6.48,4.5-.9,3.023-.36,9.54.792,13.14 1.044,3.384 3.204,5.58 5.076,7.416 1.764,1.728 3.599,2.773 5.508,3.132z" fill-rule="evenodd" stroke="#000" stroke-miterlimit="10" stroke-width=".036"/>
 <path d="m21.394 97.328s-7.848 8.676-9.792 14.688-0.972 17.604-1.764 20.952c-0.792 3.313-2.7 2.053-2.952-1.151-0.217-3.277-0.036-10.261 1.584-15.697s4.644-10.548 6.84-13.32c2.16-2.736 6.084-5.472 6.084-5.472z" fill-rule="evenodd" stroke="#000" stroke-miterlimit="10" stroke-width=".036"/>
 <path d="m18.01 95.42s-6.444 2.808-9 5.616c-2.52 2.808-4.896 9.36-6.156 11.016-1.224 1.584-1.98 0.433-1.296-1.403s2.52-5.58 4.716-8.137c2.232-2.592 5.184-4.607 7.056-5.58s4.68-1.512 4.68-1.512z" fill-rule="evenodd" stroke="#000" stroke-miterlimit="10" stroke-width=".036"/>
 <path d="m11.602,94.196c0,0-4.392,3.204-6.66,4.896-2.304,1.692-2.592,3.853-3.744,4.896-1.152,1.008-1.548.036-.792-1.188 .792-1.26 2.664-3.78 4.68-5.364s4.464-2.664 6.012-3.096c1.511-.468.504-.144.504-.144z" fill-rule="evenodd" stroke="#000" stroke-miterlimit="10" stroke-width=".036"/>
 <path d="m152.649,131.744c2.988-2.412 6.372-4.5 10.008-6.264 3.636-1.872 8.208-3.816 11.772-4.32 3.492-.504 5.58-1.08 9.18,1.584 3.672,2.628 8.568,9.828 12.168,14.112 3.384,4.104 6.444,6.443 8.208,10.764 1.62,4.284 2.196,10.008 2.16,14.688 .036,4.607-.432,8.819-1.944,12.924-1.584,3.996-4.392,8.1-7.451,11.195-3.204,2.952-8.101,5.364-11.376,6.841-3.349,1.439-4.393,2.376-8.424,1.979-4.068-.396-11.124-1.548-15.876-4.716-4.968-3.492-10.476-8.82-12.924-15.3-2.376-6.517-2.052-16.164-1.368-23.112 .576-6.948 2.16-12.924 4.896-18.216-1.476.252-2.844,2.16-4.104,5.868-1.404,3.743-2.952,10.728-3.528,16.092-.648,5.22-1.368,9.936.216,15.264 1.476,5.328 4.716,11.7 9.18,16.057 4.572,4.104 12.024,7.415 17.64,8.819 5.436,1.26 10.512.685 15.084-.756 4.5-1.476 8.388-4.104 11.951-7.452 3.456-3.312 7.381-6.3 9-12.168 1.477-6.048 2.124-16.164.396-23.112-1.836-7.02-7.236-13.14-10.764-18.216-3.564-5.184-6.769-9.504-10.188-12.132-3.456-2.52-6.444-3.384-10.368-3.132-3.96.108-9.972,2.376-13.32,3.888-3.384,1.404-5.544,3.637-7.056,4.896-1.584,1.224-2.412,1.691-2.772,2.376-.539.649-.719,1.118-.396,1.549z" fill-rule="evenodd" stroke="#000" stroke-miterlimit="10" stroke-width=".036"/>
 <path d="m152.649,131.744c1.188.504 11.844.036 17.244,1.368 5.22,1.296 10.512,3.132 13.932,6.479 3.313,3.276 4.824,7.885 6.049,13.141 1.188,5.147 1.476,11.664 1.008,17.604-.685,5.904-2.772,13.356-4.32,17.641-1.476,4.212-4.14,6.191-4.5,7.451-.468,1.08.9.433 1.764-.396 .757-.756 1.729-1.692 2.916-4.32 1.152-2.771 3.42-7.271 4.32-11.952 .972-4.788 1.368-10.8 1.188-16.235-.469-5.616-1.404-12.168-2.952-16.452-1.513-4.393-1.872-6.3-6.084-9.036-4.464-2.844-14.832-6.12-19.98-7.056-5.22-.937-11.664,1.223-10.585,1.763z" fill-rule="evenodd" stroke="#000" stroke-miterlimit="10" stroke-width=".036"/>
 <path d="m172.45,178.004c-4.068-.18-7.2-1.656-9.396-4.716-2.304-3.096-4.032-9.396-3.924-13.5 .072-4.176 1.8-10.08 4.5-11.196 2.664-1.151 9.108.756 11.16,4.32 1.8,3.42 1.152,12.744.396,16.452-.756,3.672-2.268,5.508-4.68,5.508 1.692-1.26 2.916-3.528 3.528-6.66 .576-3.275 1.188-9.288.18-12.348-1.224-3.168-4.464-5.796-6.66-6.084-2.34-.252-5.472,1.476-6.48,4.5-.9,2.916-.36,9.612.792,13.14 1.044,3.456 3.168,5.616 5.112,7.452 1.8,1.728 3.528,2.773 5.472,3.132z" fill-rule="evenodd" stroke="#000" stroke-miterlimit="10" stroke-width=".036"/>
 <path d="m137.422,143.336c0,0-4.32,10.872-4.068,17.172 .288,6.301 5.256,16.849 5.688,20.269 .396,3.348-1.836,2.844-3.168-.072-1.368-2.988-3.636-9.576-3.996-15.228-.396-5.688.684-11.521 1.764-14.904 1.08-3.349 3.78-7.237 3.78-7.237z" fill-rule="evenodd" stroke="#000" stroke-miterlimit="10" stroke-width=".036"/>
 <path d="m133.6 142.72s-5.04 4.896-6.48 8.389c-1.404 3.492-1.296 10.476-1.908 12.456-0.612 1.943-1.728 1.116-1.728-0.828s0.396-6.12 1.584-9.288c1.224-3.204 3.24-6.12 4.68-7.704 1.405-1.549 3.852-3.025 3.852-3.025z" fill-rule="evenodd" stroke="#000" stroke-miterlimit="10" stroke-width=".036"/>
 <path d="m127.16 143.8s-2.988 4.536-4.536 6.912-1.044 4.536-1.8 5.904c-0.72 1.332-1.404 0.576-1.152-0.864 0.288-1.439 1.188-4.464 2.52-6.66 1.332-2.159 3.276-4.031 4.536-4.968l0.432-0.324z" fill-rule="evenodd" stroke="#000" stroke-miterlimit="10" stroke-width=".036"/>
 <path d="m69.202,102.008c.36-.576 2.196-1.584 5.652-3.312 3.492-1.764 8.316-3.996 14.904-6.84l2.556.36c-3.636,1.116-7.164,2.592-10.98,4.716-3.744,2.087-7.596,4.536-11.556,7.632-.18-.828-.361-1.692-.576-2.556z" fill-rule="evenodd" stroke="#000" stroke-miterlimit="10" stroke-width=".036"/>
 <path d="m76.438,112.016c6.048-4.823 11.664-8.676 17.424-11.556 5.724-2.952 11.016-4.716 16.452-5.688l2.556.972c-6.984.972-13.176,2.952-19.008,6.084-5.868,3.096-10.944,7.271-15.66,12.528-.577-.756-1.152-1.547-1.764-2.34z" fill-rule="evenodd" stroke="#000" stroke-miterlimit="10" stroke-width=".036"/>
 <path d="m65.278,95.744c9.792-2.484 18.396-3.636 26.64-3.312 8.1.324 14.76,2.88 21.924,4.896 6.984,1.908 12.528,1.691 20.376,6.444 7.884,4.68 16.56,11.664 26.46,21.384l2.736-1.188c-7.776-7.848-15.12-13.859-22.32-18.432-7.272-4.5-12.996-6.408-20.772-8.784-7.92-2.52-17.676-5.04-25.668-5.904-8.064-.9-16.236.144-21.744.792s-8.964,1.584-10.764,2.952c1.043.36 2.087.756 3.132,1.152z" fill-rule="evenodd" stroke="#000" stroke-miterlimit="10" stroke-width=".036"/>
 <path d="m185.554,123.393c2.844-11.305 4.428-20.845 4.896-29.196 .433-8.316-.396-15.012-2.34-20.376 1.26,3.852 1.404,9.432.576,17.424-.828,7.92-2.771,17.712-5.688,29.771 .827.793 1.691,1.584 2.556,2.377z" fill-rule="evenodd" stroke="#000" stroke-miterlimit="10" stroke-width=".036"/>
 <path d="m190.666,126.92c3.708-6.443 8.64-12.636 15.084-19.008 6.407-6.336 13.392-13.536 23.292-18.828 9.863-5.364 21.456-9.684 35.46-13.104l-1.152-.216c2.34.036 4.176-2.52 5.652-7.812 1.439-5.4 2.592-17.676 2.771-23.904 .072-6.228-.72-10.62-2.376-13.32l-1.764,1.764c1.512,2.772 2.231,6.984 2.16,12.924-.181,5.904-1.368,17.46-2.736,22.32-1.404,4.644-1.656,4.032-5.472,6.084-3.889,2.016-10.908,3.312-17.46,6.264-6.769,3.024-15.372,7.092-21.925,11.376-6.479,4.104-11.016,7.812-16.668,13.5-5.724,5.688-11.483,12.384-17.424,20.376 .36.576.756,1.152 1.152,1.764l1.406-.18z" fill-rule="evenodd" stroke="#000" stroke-miterlimit="10" stroke-width=".036"/>
 <path d="m193.798,131.6c2.88-3.815 7.523-7.991 14.076-12.527 6.552-4.645 14.76-9.504 25.02-14.868l.576,1.728c-10.584,5.58-19.044,10.549-25.38,15.301-6.372,4.68-10.62,8.928-12.744,12.744-.504-.793-1.008-1.585-1.548-2.378z" fill-rule="evenodd" stroke="#000" stroke-miterlimit="10" stroke-width=".036"/>
 <path d="m200.458,141.032c6.983-6.336 13.787-11.521 20.556-15.696 6.768-4.212 13.14-7.38 19.656-9.504l.359,1.008c-8.244,3.384-15.372,7.021-21.96,11.448-6.516,4.392-12.204,9.036-17.063,14.472-.504-.575-1.008-1.152-1.548-1.728z" fill-rule="evenodd" stroke="#000" stroke-miterlimit="10" stroke-width=".036"/>
 <path d="m215.146,97.724c4.536.396 8.712,1.584 12.528,4.104 3.852,2.484 7.2,6.876 10.188,10.404 2.809,3.348 3.276,9.252 6.66,9.792 3.348.432 5.832-1.584 13.14-6.876 7.272-5.4 19.152-17.64 29.952-25.056 10.692-7.452 21.853-13.824 33.912-19.404-2.556,3.672-3.708,6.624-3.744,9 0,2.268.469,4.5 3.744,4.896 3.24.216 10.8-.684 15.48-2.556 4.5-1.8 7.812-1.584 11.735-8.1 3.853-6.732 7.524-16.992 11.305-31.464l-2.053.432c-3.312,11.916-6.443,20.592-9.252,26.712-2.951,6.012-3.708,6.984-7.812,9.288-4.176,2.268-13.248,3.528-16.668,3.924-3.42.288-3.708-.54-3.924-2.34-.252-2.052 1.116-6.12 2.16-9 .899-2.916 3.456-7.2 3.348-7.848-.145-.576-2.736,2.736-4.32,4.104-1.62,1.26-.72.72-5.508,3.528-4.895,2.736-15.192,7.416-23.507,12.924-8.496,5.436-19.152,14.112-26.424,19.8-7.309,5.58-13.068,11.556-16.849,13.896-3.744,2.16-3.275,1.98-5.688-.396-2.557-2.448-4.752-10.477-9.216-14.076-4.608-3.636-10.261-6.192-17.641-7.668-.503.648-1.006,1.296-1.546,1.98z" fill-rule="evenodd" stroke="#000" stroke-miterlimit="10" stroke-width=".036"/>
 <path d="m224.146,90.668c3.888,0 7.596.792 11.556,2.916 3.925,2.016 8.173,7.956 11.772,9.216 3.564,1.116 5.184.721 9.576-2.16 4.319-3.06 9.756-9.899 16.452-15.083 6.659-5.22 14.508-10.656 23.147-15.48 8.496-4.824 17.568-9 27.612-12.924 3.672-4.752 6.983-8.784 9.792-11.952 2.771-3.276 4.428-5.364 7.056-7.236 2.7-1.98 5.94-3.672 8.604-4.104 2.52-.468 4.716.504 6.3,1.368 1.404.792 2.196,2.016 2.52,3.528 .252,1.404-.071,3.096-.972,5.076l1.98-.792c1.26-2.232 1.512-4.14.756-5.868-.864-1.836-2.772-3.708-5.292-4.5-2.664-.792-6.408-1.368-9.576-.18-3.132,1.08-5.22,2.808-9.036,6.84-3.888,4.068-8.532,9.576-14.076,17.064-9.396,3.312-18.576,7.416-27.828,12.708-9.359,5.22-20.771,13.464-27.432,18.612-6.624,5.076-9.108,9.108-12.168,11.555-3.168,2.305-4.464,2.917-6.66,2.377-2.304-.648-4.355-4.249-6.84-6.084-2.664-1.98-5.688-4.248-8.244-5.292s-4.68-1.368-6.66-.972c-1.943.828-3.168,1.296-3.527,1.548-.433.251-.036.143 1.188-.181z" fill-rule="evenodd" stroke="#000" stroke-miterlimit="10" stroke-width=".036"/>
 <path d="m239.05,93.224c.144-2.16.792-4.32 1.943-6.48 1.08-2.16 2.7-4.32 4.717-6.48l3.312-.576c-3.06,2.592-5.436,5.4-6.84,8.028-1.44,2.592-2.196,5.4-1.98,8.028-.36-.828-.757-1.656-1.152-2.52z" fill-rule="evenodd" stroke="#000" stroke-miterlimit="10" stroke-width=".036"/>
 <path d="m266.086,73.424c1.8.108 3.672.828 5.472,2.16 1.872,1.332 3.456,3.132 5.292,5.688l1.584-1.008c-1.332-1.728-2.772-3.24-4.716-4.68-1.98-1.476-4.068-2.628-6.66-3.744-.325.504-.649,1.044-.972,1.584z" fill-rule="evenodd" stroke="#000" stroke-miterlimit="10" stroke-width=".036"/>
 <path d="m269.218,64.604c4.5.072 8.172.72 11.556,2.34 3.276,1.584 6.012,3.744 8.208,6.876l2.16-1.368c-3.456-3.708-7.092-6.228-10.764-7.848-3.816-1.62-7.488-2.16-11.557-1.764 .109.576.252,1.152.397,1.764z" fill-rule="evenodd" stroke="#000" stroke-miterlimit="10" stroke-width=".036"/>
 <path d="m297.046,83.216c.468,3.6.72,7.776.756,12.924 0,5.148.359,12.312-.576,17.459-1.044,4.969-1.44,8.568-5.472,12.313-4.177,3.744-10.368,6.876-19.009,9.792 1.152.792 3.169.684 6.049-.18 2.916-.9 7.991-2.988 11.195-5.292 3.097-2.376 5.616-4.717 7.416-8.82 1.584-4.356 2.34-9.54 2.557-16.236 .107-6.696-.36-14.328-1.548-23.328 0-.072.144-.216 0,0-.217.18-.721.684-1.368,1.368z" fill-rule="evenodd" stroke="#000" stroke-miterlimit="10" stroke-width=".036"/>
 <path d="m285.273,91.064c1.332,3.276 1.729,7.344 1.584,12.348-.252,4.968-1.332,11.916-2.952,17.244-1.728,5.22-4.5,10.872-7.056,13.896-2.736,2.952-5.004,2.845-8.604,3.708-3.672.864-8.712,1.62-12.743,1.009-4.104-.828-8.28-2.124-11.16-5.688-2.88-3.636-4.681-9-5.688-16.092l1.872-.72c.612,5.327 1.729,9.396 3.204,12.491 1.44,3.024 1.944,4.464 5.688,5.688 3.743,1.116 11.916,1.728 16.452,1.151 4.319-.791 7.163-2.376 9.791-4.896 2.412-2.628 4.356-6.264 5.688-9.792 1.224-3.564 1.944-7.344 2.556-10.764 .54-3.349 1.368-6.336 1.368-9.396 0-3.132-.504-6.264-1.368-9.396 .433-.251.901-.503 1.368-.791z" fill-rule="evenodd" stroke="#000" stroke-miterlimit="10" stroke-width=".036"/>
 <path d="m258.237,114.752c1.008,1.908 2.557,2.952 4.5,3.132 2.088.145 5.148-.647 7.236-1.943 1.944-1.332 3.456-3.24 4.14-5.868 .54-2.7.324-6.048-.792-10.188l-.575,1.368h-.001c.469,2.232.469,4.284 0,6.444-.396,2.052-1.224,4.68-2.771,6.084-1.8,1.332-5.616,2.16-7.416,1.943-1.764-.323-2.808-1.439-3.132-3.491-.397.828-.792,1.655-1.189,2.519z" fill-rule="evenodd" stroke="#000" stroke-miterlimit="10" stroke-width=".036"/>
 <path d="m353.493,46.064c-1.367,4.176-2.411,7.524-3.42,10.188-.936,2.484-1.619,3.276-2.483,5.436-1.044,2.196-2.196,5.292-3.601,7.488-1.439,2.016-2.052,3.24-4.607,4.644-2.7,1.368-8.568,3.312-10.8,3.312-2.232-.144-3.456-.36-2.557-4.104 .792-3.96 4.141-13.032 7.272-18.612 3.096-5.544 8.063-12.132 11.16-14.508 2.916-2.52 5.075-1.152 6.479-.18s2.052,2.736 1.944,5.688c-.324-2.412-.973-3.996-1.944-4.896-1.008-.936-1.8-1.98-3.744-.612-2.052,1.224-5.328,4.572-8.027,8.244-2.845,3.672-6.229,9.144-8.208,13.5-1.98,4.248-3.168,9.468-3.168,11.772-.108,2.124 1.476,1.62 2.951,1.548 1.404-.036 3.96-.468 5.868-1.728 1.908-1.404 3.636-4.14 5.328-6.12 1.477-2.016 2.34-3.456 3.853-5.868 1.476-2.484 3.384-6.408 4.752-8.856 1.297-2.628 2.232-4.608 2.952-6.336z" fill-rule="evenodd" stroke="#000" stroke-miterlimit="10" stroke-width=".036"/>
 <path d="m101.313,9.92c-3.78,1.584-10.332,4.572-20.088,8.964-9.792,4.464-22.248,10.044-37.944,17.28 .936,2.52 4.824,4.896 11.952,7.128 7.164,2.232 15.336,3.888 30.492,6.084 15.12,2.196 42.12,5.148 59.22,6.624 16.92,1.332 31.824,1.8 41.94,1.26 9.828-.72 11.088-2.736 17.532-5.076 6.443-2.304 13.14-4.86 21.348-8.64 8.172-3.888 21.024-9.612 27.432-14.256 6.265-4.608 9.792-9.036 10.44-13.284-18.288-4.788-40.248-7.74-67.14-9-27-1.26-57.349-.72-92.988,1.62l-2.268,1.296c34.632-2.232 64.62-2.772 91.512-1.476 26.784,1.332 49.104,4.212 68.076,9.072-.792,2.664-4.141,5.904-9.9,10.008-6.012,4.14-15.156,9.576-24.912,14.22-9.72,4.536-20.592,8.676-33.048,12.708-14.868.648-31.752.18-51.336-1.26-19.692-1.548-49.5-4.932-65.556-7.632-16.02-2.736-25.848-5.616-30.024-8.64 16.992-7.38 30.204-13.284 40.32-17.856 10.08-4.572 16.416-7.74 19.548-9.504-1.511.108-3.059.216-4.608.36z" fill-rule="evenodd" stroke="#000" stroke-miterlimit="10" stroke-width=".036"/>
 <path d="m43.786,26.768c-7.164,3.312-12.528,6.552-16.236,10.152-3.78,3.456-6.84,8.028-6.12,10.944 .684,2.844-1.656,3.564 10.188,6.336 11.916,2.7 38.52,7.164 60.228,9.9 21.6,2.664 51.588,4.932 68.58,6.12 16.848.972 22.355,1.188 31.788.252 9.252-.972 14.111-1.98 23.616-6.084 9.468-4.356 23.508-14.04 32.544-19.332 8.819-5.22 15.695-8.46 20.34-12.204 4.536-3.852 6.12-7.344 6.84-10.908 .54-3.672.504-8.208-3.024-10.692-3.6-2.52-9.575-3.744-18.216-3.96l11.592,2.952c3.672,1.728 5.868,3.708 6.876,6.336 .9,2.52.973,5.58-1.296,8.892-2.483,3.276-4.824,5.544-12.708,10.692-7.992,5.04-24.66,14.472-34.308,19.548-9.685,5.04-14.688,8.244-23.364,10.44-8.855,2.052-12.636,2.628-28.98,2.016-16.596-.756-47.232-3.348-68.868-5.832-21.6-2.484-46.692-6.876-59.724-8.892-13.032-2.124-14.832-2.016-18.036-3.564-3.276-1.62-2.268-3.42-1.008-5.832 1.26-2.592 3.816-5.688 8.64-8.892 4.824-3.168 11.412-6.552 20.16-10.152-3.168.576-6.336,1.152-9.504,1.764z" fill-rule="evenodd" stroke="#000" stroke-miterlimit="10" stroke-width=".036"/>
 <path d="m29.565,52.688c3.06,3.78 5.904,8.892 8.388,15.732 2.52,6.732 4.68,14.904 6.624,24.66l2.52-1.26c-1.908-9.9-3.924-17.676-6.336-24.156-2.376-6.408-5.004-11.016-7.884-13.968-1.079-.324-2.195-.648-3.312-1.008z" fill-rule="evenodd" stroke="#000" stroke-miterlimit="10" stroke-width=".036"/>
 <path d="m244.054,98.948c5.76-2.448 9.18-3.852 10.656-4.068 1.332-.252-.721,1.512-2.269,2.52-1.584.936-3.96,1.909-7.128,3.06-.395-.504-.828-1.008-1.259-1.512z" fill-rule="evenodd" stroke="#000" stroke-miterlimit="10" stroke-width=".036"/>
 <path d="m266.157,90.056c-1.476-.9-3.132-1.368-4.823-1.548-1.836-.288-4.212-.72-5.58.504s-2.269,3.384-2.557,6.624l1.765-.252c.252-2.232.756-3.888 1.8-4.824 1.08-.972 2.808-1.368 4.068-1.044 1.079.288 1.871,1.044 2.52,2.556 .935-.648 1.872-1.332 2.807-2.016z" fill-rule="evenodd" stroke="#000" stroke-miterlimit="10" stroke-width=".036"/>
 <path d="m42.273,27.056c4.032-2.232 9.504-4.896 16.848-8.136 7.2-3.348 18.324-8.748 26.712-11.34 8.316-2.556 9.216-2.52 23.256-3.78 14.112-1.332 41.328-3.708 60.408-3.78 18.972-.072 36.18,1.692 52.596,3.204 16.236,1.404 30.852,3.096 44.424,5.22l1.764,2.34c-1.979-.756-8.676-1.728-20.628-3.204-12.06-1.476-34.235-4.608-50.544-5.508-16.38-.972-31.644-.792-46.476-.288-14.904.504-31.536,2.16-41.544,3.168-9.972.828-12.924,1.332-17.748,2.34-4.86,1.044-4.176.504-11.016,3.78-6.948,3.24-23.868,12.636-30.204,15.408-6.408,2.664-8.927,2.808-7.848.576z" fill-rule="evenodd" stroke="#000" stroke-miterlimit="10" stroke-width=".036"/>
 <path d="m104.158,9.632c.576,1.548 1.476,5.616 2.304,12.492 .864,6.912 1.836,16.2 2.916,28.44l1.728-.288c-.648-6.624-1.188-13.356-2.016-20.34-.72-7.056-1.728-14.076-2.628-21.492-.756.396-1.512.792-2.304,1.188z" fill-rule="evenodd" stroke="#000" stroke-miterlimit="10" stroke-width=".036"/>
</svg>
